<mxfile host="65bd71144e">
    <diagram id="dP2pN3_JtfydULPp_apn" name="Page-1">
        <mxGraphModel dx="1878" dy="1879" grid="1" gridSize="10" guides="1" tooltips="1" connect="1" arrows="1" fold="1" page="1" pageScale="1" pageWidth="850" pageHeight="1100" math="0" shadow="0">
            <root>
                <mxCell id="0"/>
                <mxCell id="1" parent="0"/>
                <mxCell id="25" value="" style="rounded=1;whiteSpace=wrap;html=1;dashed=1;fontSize=16;fontStyle=1;strokeWidth=5;" parent="1" vertex="1">
                    <mxGeometry x="240" y="10" width="400" height="880" as="geometry"/>
                </mxCell>
                <mxCell id="6" value="" style="edgeStyle=none;html=1;fontSize=16;fontStyle=1;strokeWidth=5;flowAnimation=1;" parent="1" source="4" target="5" edge="1">
                    <mxGeometry relative="1" as="geometry"/>
                </mxCell>
                <mxCell id="4" value="Tokenized Text" style="html=1;dashed=0;whiteSpace=wrap;shape=mxgraph.dfd.start;fontSize=16;fontStyle=1;strokeWidth=5;" parent="1" vertex="1">
                    <mxGeometry x="-20" y="470" width="190" height="60" as="geometry"/>
                </mxCell>
                <mxCell id="8" value="" style="edgeStyle=none;html=1;fontSize=16;fontStyle=1;strokeWidth=5;flowAnimation=1;" parent="1" source="5" target="7" edge="1">
                    <mxGeometry relative="1" as="geometry"/>
                </mxCell>
                <mxCell id="5" value="Token Embedding" style="html=1;dashed=0;whiteSpace=wrap;shape=mxgraph.dfd.start;fontSize=16;fontStyle=1;strokeWidth=5;" parent="1" vertex="1">
                    <mxGeometry x="-20" y="360" width="190" height="60" as="geometry"/>
                </mxCell>
                <mxCell id="7" value="Positional Embedding" style="html=1;dashed=0;whiteSpace=wrap;shape=mxgraph.dfd.start;fontSize=16;fontStyle=1;strokeWidth=5;" parent="1" vertex="1">
                    <mxGeometry x="-20" y="250" width="190" height="60" as="geometry"/>
                </mxCell>
                <mxCell id="11" value="" style="edgeStyle=none;html=1;fontSize=16;fontStyle=1;strokeWidth=5;flowAnimation=1;" parent="1" source="9" target="10" edge="1">
                    <mxGeometry relative="1" as="geometry"/>
                </mxCell>
                <mxCell id="9" value="Layer Norm 1" style="html=1;dashed=0;whiteSpace=wrap;shape=mxgraph.dfd.start;fontSize=16;fontStyle=1;strokeWidth=5;" parent="1" vertex="1">
                    <mxGeometry x="340" y="710" width="190" height="60" as="geometry"/>
                </mxCell>
                <mxCell id="13" value="" style="edgeStyle=none;html=1;fontSize=16;fontStyle=1;strokeWidth=5;flowAnimation=1;" parent="1" source="10" target="12" edge="1">
                    <mxGeometry relative="1" as="geometry"/>
                </mxCell>
                <mxCell id="10" value="Multi head attention" style="html=1;dashed=0;whiteSpace=wrap;shape=mxgraph.dfd.start;fontSize=16;fontStyle=1;fillColor=#dae8fc;gradientColor=#7ea6e0;strokeColor=#6c8ebf;strokeWidth=5;" parent="1" vertex="1">
                    <mxGeometry x="340" y="600" width="190" height="60" as="geometry"/>
                </mxCell>
                <mxCell id="15" value="" style="edgeStyle=none;html=1;fontSize=16;fontStyle=1;strokeWidth=5;flowAnimation=1;" parent="1" source="12" target="14" edge="1">
                    <mxGeometry relative="1" as="geometry"/>
                </mxCell>
                <mxCell id="12" value="Dropout" style="html=1;dashed=0;whiteSpace=wrap;shape=mxgraph.dfd.start;fontSize=16;fontStyle=1;strokeWidth=5;" parent="1" vertex="1">
                    <mxGeometry x="340" y="490" width="190" height="60" as="geometry"/>
                </mxCell>
                <mxCell id="21" value="" style="edgeStyle=none;html=1;fontSize=16;fontStyle=1;strokeWidth=5;flowAnimation=1;" parent="1" source="14" target="16" edge="1">
                    <mxGeometry relative="1" as="geometry"/>
                </mxCell>
                <mxCell id="14" value="+" style="shape=ellipse;html=1;dashed=0;whiteSpace=wrap;aspect=fixed;perimeter=ellipsePerimeter;fontSize=16;fontStyle=1;strokeWidth=5;" parent="1" vertex="1">
                    <mxGeometry x="420" y="413" width="30" height="30" as="geometry"/>
                </mxCell>
                <mxCell id="18" value="" style="edgeStyle=none;html=1;fontSize=16;fontStyle=1;strokeWidth=5;flowAnimation=1;" parent="1" source="16" target="17" edge="1">
                    <mxGeometry relative="1" as="geometry"/>
                </mxCell>
                <mxCell id="16" value="Layer Norm" style="html=1;dashed=0;whiteSpace=wrap;shape=mxgraph.dfd.start;fontSize=16;fontStyle=1;strokeWidth=5;" parent="1" vertex="1">
                    <mxGeometry x="340" y="312" width="190" height="60" as="geometry"/>
                </mxCell>
                <mxCell id="20" value="" style="edgeStyle=none;html=1;fontSize=16;fontStyle=1;strokeWidth=5;flowAnimation=1;" parent="1" source="17" target="19" edge="1">
                    <mxGeometry relative="1" as="geometry"/>
                </mxCell>
                <mxCell id="17" value="Feed forward NN" style="html=1;dashed=0;whiteSpace=wrap;shape=mxgraph.dfd.start;fontSize=16;fontStyle=1;strokeWidth=5;" parent="1" vertex="1">
                    <mxGeometry x="340" y="210" width="190" height="60" as="geometry"/>
                </mxCell>
                <mxCell id="24" style="edgeStyle=none;html=1;entryX=0.5;entryY=1;entryDx=0;entryDy=0;fontSize=16;fontStyle=1;strokeWidth=5;flowAnimation=1;" parent="1" source="19" target="22" edge="1">
                    <mxGeometry relative="1" as="geometry"/>
                </mxCell>
                <mxCell id="19" value="Dropout" style="html=1;dashed=0;whiteSpace=wrap;shape=mxgraph.dfd.start;fontSize=16;fontStyle=1;strokeWidth=5;" parent="1" vertex="1">
                    <mxGeometry x="340" y="100" width="190" height="60" as="geometry"/>
                </mxCell>
                <mxCell id="22" value="+" style="shape=ellipse;html=1;dashed=0;whiteSpace=wrap;aspect=fixed;perimeter=ellipsePerimeter;fontSize=16;fontStyle=1;strokeWidth=5;" parent="1" vertex="1">
                    <mxGeometry x="420" y="30" width="30" height="30" as="geometry"/>
                </mxCell>
                <mxCell id="26" value="Final Layer Norm" style="html=1;dashed=0;whiteSpace=wrap;shape=mxgraph.dfd.start;fontSize=16;fontStyle=1;strokeWidth=5;" parent="1" vertex="1">
                    <mxGeometry x="710" y="470" width="190" height="60" as="geometry"/>
                </mxCell>
                <mxCell id="27" value="Output Layer" style="html=1;dashed=0;whiteSpace=wrap;shape=mxgraph.dfd.start;fontSize=16;fontStyle=1;strokeWidth=5;" parent="1" vertex="1">
                    <mxGeometry x="710" y="360" width="190" height="60" as="geometry"/>
                </mxCell>
                <mxCell id="28" style="edgeStyle=none;html=1;entryX=0.5;entryY=1;entryDx=0;entryDy=0;entryPerimeter=0;fontSize=16;fontStyle=1;strokeWidth=5;flowAnimation=1;" parent="1" source="26" target="27" edge="1">
                    <mxGeometry relative="1" as="geometry"/>
                </mxCell>
                <mxCell id="31" value="Logists Matrix" style="html=1;dashed=0;whiteSpace=wrap;shape=mxgraph.dfd.start;fontSize=16;fontStyle=1;strokeWidth=5;" parent="1" vertex="1">
                    <mxGeometry x="700" y="250" width="190" height="60" as="geometry"/>
                </mxCell>
                <mxCell id="32" style="edgeStyle=none;html=1;entryX=0.553;entryY=0.967;entryDx=0;entryDy=0;entryPerimeter=0;fontSize=16;fontStyle=1;strokeWidth=5;flowAnimation=1;" parent="1" source="27" target="31" edge="1">
                    <mxGeometry relative="1" as="geometry"/>
                </mxCell>
                <mxCell id="36" value="" style="endArrow=classic;html=1;exitX=0.5;exitY=0;exitDx=0;exitDy=0;entryX=0.5;entryY=0.5;entryDx=0;entryDy=30;entryPerimeter=0;fontSize=16;fontStyle=1;strokeWidth=5;flowAnimation=1;" parent="1" source="22" target="26" edge="1">
                    <mxGeometry width="50" height="50" relative="1" as="geometry">
                        <mxPoint x="660" y="80" as="sourcePoint"/>
                        <mxPoint x="680" y="510" as="targetPoint"/>
                        <Array as="points">
                            <mxPoint x="435" y="-30"/>
                            <mxPoint x="670" y="-30"/>
                            <mxPoint x="670" y="240"/>
                            <mxPoint x="670" y="620"/>
                            <mxPoint x="805" y="620"/>
                        </Array>
                    </mxGeometry>
                </mxCell>
                <mxCell id="37" value="" style="endArrow=classic;html=1;entryX=0;entryY=0.5;entryDx=0;entryDy=0;entryPerimeter=0;fontSize=16;fontStyle=1;strokeWidth=5;flowAnimation=1;exitX=0.5;exitY=0.5;exitDx=0;exitDy=-30;exitPerimeter=0;" parent="1" source="39" target="9" edge="1">
                    <mxGeometry width="50" height="50" relative="1" as="geometry">
                        <mxPoint x="80" y="120" as="sourcePoint"/>
                        <mxPoint x="470" y="290" as="targetPoint"/>
                        <Array as="points">
                            <mxPoint x="75" y="80"/>
                            <mxPoint x="190" y="80"/>
                            <mxPoint x="190" y="200"/>
                            <mxPoint x="190" y="740"/>
                        </Array>
                    </mxGeometry>
                </mxCell>
                <mxCell id="38" value="TRANSFORMER BLOCK" style="text;html=1;align=center;verticalAlign=middle;whiteSpace=wrap;rounded=0;strokeWidth=2;fontSize=19;fontStyle=1" parent="1" vertex="1">
                    <mxGeometry x="405" y="810" width="60" height="30" as="geometry"/>
                </mxCell>
                <mxCell id="39" value="Input Embedding" style="html=1;dashed=0;whiteSpace=wrap;shape=mxgraph.dfd.start;fontSize=16;fontStyle=1;strokeWidth=5;" parent="1" vertex="1">
                    <mxGeometry x="-20" y="140" width="190" height="60" as="geometry"/>
                </mxCell>
                <mxCell id="40" style="edgeStyle=none;html=1;entryX=0.5;entryY=0.5;entryDx=0;entryDy=30;entryPerimeter=0;strokeWidth=5;flowAnimation=1;" parent="1" source="7" target="39" edge="1">
                    <mxGeometry relative="1" as="geometry"/>
                </mxCell>
                <mxCell id="41" value="" style="rounded=1;whiteSpace=wrap;html=1;dashed=1;fontSize=16;fontStyle=1;strokeWidth=5;fillColor=none;gradientColor=#7ea6e0;strokeColor=#000000;" parent="1" vertex="1">
                    <mxGeometry x="1015" y="35" width="540" height="830" as="geometry"/>
                </mxCell>
                <mxCell id="42" value="MULT-HEAD ATTENTION" style="text;html=1;align=center;verticalAlign=middle;whiteSpace=wrap;rounded=0;strokeWidth=2;fontSize=19;fontStyle=1" parent="1" vertex="1">
                    <mxGeometry x="1220" y="800" width="130" height="30" as="geometry"/>
                </mxCell>
                <mxCell id="43" style="edgeStyle=none;html=1;entryX=0;entryY=0.716;entryDx=0;entryDy=0;entryPerimeter=0;dashed=1;dashPattern=8 8;" parent="1" source="10" target="41" edge="1">
                    <mxGeometry relative="1" as="geometry"/>
                </mxCell>
                <mxCell id="46" value="" style="edgeStyle=none;html=1;flowAnimation=1;strokeWidth=2;" parent="1" source="44" target="45" edge="1">
                    <mxGeometry relative="1" as="geometry"/>
                </mxCell>
                <mxCell id="44" value="Initialize Wq,Wk,Wv" style="html=1;dashed=0;whiteSpace=wrap;shape=mxgraph.dfd.start;fontSize=16;fontStyle=1;strokeWidth=2;" parent="1" vertex="1">
                    <mxGeometry x="1190" y="700" width="190" height="60" as="geometry"/>
                </mxCell>
                <mxCell id="48" value="" style="edgeStyle=none;html=1;flowAnimation=1;strokeWidth=2;" parent="1" source="45" target="47" edge="1">
                    <mxGeometry relative="1" as="geometry"/>
                </mxCell>
                <mxCell id="45" value="Q = X * Wq" style="html=1;dashed=0;whiteSpace=wrap;shape=mxgraph.dfd.start;fontSize=16;fontStyle=1;strokeWidth=2;" parent="1" vertex="1">
                    <mxGeometry x="1190" y="520" width="190" height="60" as="geometry"/>
                </mxCell>
                <mxCell id="56" value="" style="edgeStyle=none;html=1;flowAnimation=1;strokeWidth=2;" parent="1" source="47" edge="1">
                    <mxGeometry relative="1" as="geometry">
                        <mxPoint x="1285" y="372" as="targetPoint"/>
                    </mxGeometry>
                </mxCell>
                <mxCell id="47" value="Attention score&lt;div&gt;Q * K.T&lt;/div&gt;" style="html=1;dashed=0;whiteSpace=wrap;shape=mxgraph.dfd.start;fontSize=16;fontStyle=1;strokeWidth=2;" parent="1" vertex="1">
                    <mxGeometry x="1190" y="420" width="190" height="60" as="geometry"/>
                </mxCell>
                <mxCell id="49" value="V = X * Wv" style="html=1;dashed=0;whiteSpace=wrap;shape=mxgraph.dfd.start;fontSize=16;fontStyle=1;strokeWidth=2;" parent="1" vertex="1">
                    <mxGeometry x="1340" y="600" width="190" height="60" as="geometry"/>
                </mxCell>
                <mxCell id="50" value="K = X * Wk" style="html=1;dashed=0;whiteSpace=wrap;shape=mxgraph.dfd.start;fontSize=16;fontStyle=1;strokeWidth=2;" parent="1" vertex="1">
                    <mxGeometry x="1030" y="610" width="190" height="60" as="geometry"/>
                </mxCell>
                <mxCell id="51" style="edgeStyle=none;html=1;entryX=0.5;entryY=0.5;entryDx=0;entryDy=30;entryPerimeter=0;flowAnimation=1;strokeWidth=2;" parent="1" source="44" target="50" edge="1">
                    <mxGeometry relative="1" as="geometry">
                        <Array as="points">
                            <mxPoint x="1125" y="730"/>
                        </Array>
                    </mxGeometry>
                </mxCell>
                <mxCell id="52" style="edgeStyle=none;html=1;entryX=0.568;entryY=1.033;entryDx=0;entryDy=0;entryPerimeter=0;flowAnimation=1;strokeWidth=2;" parent="1" source="44" target="49" edge="1">
                    <mxGeometry relative="1" as="geometry">
                        <mxPoint x="1440" y="680" as="targetPoint"/>
                        <Array as="points">
                            <mxPoint x="1448" y="730"/>
                        </Array>
                    </mxGeometry>
                </mxCell>
                <mxCell id="53" style="edgeStyle=none;html=1;flowAnimation=1;strokeWidth=2;" parent="1" source="50" edge="1">
                    <mxGeometry relative="1" as="geometry">
                        <mxPoint x="1285" y="500" as="targetPoint"/>
                        <Array as="points">
                            <mxPoint x="1125" y="500"/>
                            <mxPoint x="1210" y="500"/>
                        </Array>
                    </mxGeometry>
                </mxCell>
                <mxCell id="54" style="edgeStyle=none;html=1;exitX=0.553;exitY=0.05;exitDx=0;exitDy=0;exitPerimeter=0;flowAnimation=1;strokeWidth=2;" parent="1" source="49" edge="1">
                    <mxGeometry relative="1" as="geometry">
                        <mxPoint x="1280" y="500" as="targetPoint"/>
                        <Array as="points">
                            <mxPoint x="1445" y="500"/>
                        </Array>
                    </mxGeometry>
                </mxCell>
                <mxCell id="58" value="" style="edgeStyle=none;html=1;flowAnimation=1;strokeWidth=2;" parent="1" target="57" edge="1">
                    <mxGeometry relative="1" as="geometry">
                        <mxPoint x="1285" y="312" as="sourcePoint"/>
                    </mxGeometry>
                </mxCell>
                <mxCell id="62" value="" style="edgeStyle=none;html=1;flowAnimation=1;strokeWidth=2;" parent="1" source="57" target="61" edge="1">
                    <mxGeometry relative="1" as="geometry"/>
                </mxCell>
                <mxCell id="57" value="Attention weights" style="html=1;dashed=0;whiteSpace=wrap;shape=mxgraph.dfd.start;fontSize=16;fontStyle=1;strokeWidth=2;" parent="1" vertex="1">
                    <mxGeometry x="1190" y="200" width="190" height="60" as="geometry"/>
                </mxCell>
                <mxCell id="59" value="Normalization&lt;div&gt;&lt;span style=&quot;color: rgb(192, 192, 192); font-weight: normal;&quot;&gt;&lt;font style=&quot;font-size: 13px;&quot;&gt;softmax(score/sqrt(dim))&lt;/font&gt;&lt;/span&gt;&lt;/div&gt;" style="html=1;dashed=0;whiteSpace=wrap;shape=mxgraph.dfd.start;fontSize=16;fontStyle=1;strokeWidth=2;" parent="1" vertex="1">
                    <mxGeometry x="1190" y="310" width="190" height="60" as="geometry"/>
                </mxCell>
                <mxCell id="61" value="Context Vector&lt;div&gt;att wt * V&lt;/div&gt;" style="html=1;dashed=0;whiteSpace=wrap;shape=mxgraph.dfd.start;fontSize=16;fontStyle=1;strokeWidth=2;" parent="1" vertex="1">
                    <mxGeometry x="1190" y="100" width="190" height="60" as="geometry"/>
                </mxCell>
                <mxCell id="63" value="" style="endArrow=classic;html=1;entryX=1;entryY=0.5;entryDx=0;entryDy=0;entryPerimeter=0;flowAnimation=1;strokeWidth=2;" parent="1" edge="1">
                    <mxGeometry width="50" height="50" relative="1" as="geometry">
                        <mxPoint x="1446" y="600" as="sourcePoint"/>
                        <mxPoint x="1383" y="132" as="targetPoint"/>
                        <Array as="points">
                            <mxPoint x="1446" y="130"/>
                        </Array>
                    </mxGeometry>
                </mxCell>
            </root>
        </mxGraphModel>
    </diagram>
</mxfile>